<svg xmlns="http://www.w3.org/2000/svg" data-name="Group 12" viewBox="0 0 18 18.001"><defs><clipPath id="a"><path fill="#fff" d="M0 0h18v18H0z" data-name="Rectangle 61"/></clipPath></defs><g clip-path="url(#a)" data-name="Group 26"><path fill="#fff" d="M16.668 0H1.328A1.314 1.314 0 0 0 0 1.3v15.4A1.314 1.314 0 0 0 1.328 18h15.34A1.317 1.317 0 0 0 18 16.7V1.3A1.316 1.316 0 0 0 16.668 0M5.34 15.338H2.667v-8.59H5.34ZM4 5.575a1.548 1.548 0 1 1 1.552-1.549A1.55 1.55 0 0 1 4 5.575m11.335 9.764h-2.67v-4.178c0-1-.017-2.278-1.387-2.278-1.39 0-1.6 1.086-1.6 2.207v4.249H7.015V6.748h2.559v1.175h.036a2.8 2.8 0 0 1 2.526-1.388c2.7 0 3.2 1.779 3.2 4.092Z" data-name="Path 311"/></g></svg>